<?xml version="1.0" encoding="UTF-8"?>
<svg width="75px" height="84px" viewBox="0 0 75 84" version="1.1" xmlns="http://www.w3.org/2000/svg" xmlns:xlink="http://www.w3.org/1999/xlink">
    <!-- Generator: sketchtool 52.6 (67491) - http://www.bohemiancoding.com/sketch -->
    <title>5CB1C38E-C6AC-4F60-92DF-9CF6540D5C31@2x</title>
    <desc>Created with sketchtool.</desc>
    <g id="FINAL" stroke="none" stroke-width="1" fill="none" fill-rule="evenodd">
        <g id="illustrace-návrh2.2-copy-2" transform="translate(-895.000000, -3918.000000)" fill="#231F20">
            <g id="Group-4" transform="translate(478.000000, 3893.000000)">
                <path d="M431.793682,40.6626506 C431.6885,40.6626506 431.591494,40.6213143 431.518353,40.5467292 C431.444107,40.4723687 431.403449,40.3735209 431.403449,40.2677089 C431.403449,40.1618969 431.444107,40.0632738 431.518353,39.9886887 L442.591174,28.7303793 C442.66542,28.6560188 442.76331,28.6144578 442.866503,28.6144578 C442.970801,28.6144578 443.068691,28.6560188 443.142716,28.7303793 C443.292976,28.8847166 443.292976,29.1352057 443.141832,29.290217 L432.067243,40.5467292 C431.994765,40.6197417 431.895991,40.6626506 431.793682,40.6626506 Z M431.812082,35.8433735 C431.702866,35.8433735 431.600361,35.8000922 431.523771,35.7219977 C431.446024,35.6441384 431.403449,35.539934 431.403449,35.4289081 C431.403449,35.3190583 431.446024,35.2148539 431.523771,35.1358186 L437.82126,28.7358336 C437.898081,28.6579743 437.999661,28.6144578 438.10772,28.6144578 C438.216935,28.6144578 438.318515,28.6579743 438.396031,28.7358336 C438.554069,28.8974328 438.554069,29.1597079 438.396031,29.3210719 L432.098542,35.7219977 C432.022646,35.7991513 431.91829,35.8433735 431.812082,35.8433735 Z M456.337618,66.5662651 C455.659026,66.5662651 455.107152,66.0250171 455.107152,65.3614458 C455.107152,64.6976552 455.659026,64.1566265 456.337618,64.1566265 L463.359959,64.1566265 C464.037656,64.1566265 464.588634,64.6976552 464.588634,65.3614458 C464.588634,66.0250171 464.037656,66.5662651 463.359959,66.5662651 L456.337618,66.5662651 Z M456.337618,64.9287105 C456.09448,64.9287105 455.896791,65.1231564 455.896791,65.3614458 C455.896791,65.599516 456.09448,65.7939619 456.337618,65.7939619 L463.359959,65.7939619 C463.602202,65.7939619 463.799891,65.599516 463.799891,65.3614458 C463.799891,65.1231564 463.602202,64.9287105 463.359959,64.9287105 L456.337618,64.9287105 Z M431.969865,68.373494 C429.696802,68.373494 427.847893,66.492366 427.847893,64.179901 L427.847893,29.1917816 C427.847893,26.8802222 429.696802,25 431.969865,25 L487.72503,25 C489.998093,25 491.847893,26.8802222 491.847893,29.1917816 L491.847893,64.179901 C491.847893,66.492366 489.998093,68.373494 487.72503,68.373494 L431.969865,68.373494 Z M431.969865,25.7958792 C430.129862,25.7958792 428.632299,27.3188049 428.632299,29.1917816 L428.632299,64.179901 C428.632299,66.0528777 430.130085,67.5758033 431.969865,67.5758033 L487.72503,67.5758033 C489.565034,67.5758033 491.062597,66.0528777 491.062597,64.179901 L491.062597,29.1917816 C491.062597,27.3188049 489.564811,25.7958792 487.72503,25.7958792 L431.969865,25.7958792 Z M450.788875,75 L450.683543,74.7823552 C450.473333,74.3519638 450.366412,73.8977208 450.366412,73.4332558 C450.366412,71.6401354 451.922331,70.1807229 453.835335,70.1807229 L465.86204,70.1807229 C467.773455,70.1807229 469.329375,71.6403484 469.329375,73.4332558 C469.329375,73.9028318 469.224042,74.3562229 469.015421,74.7823552 L468.9085,75 L450.788875,75 Z M453.835335,70.929915 C452.364544,70.929915 451.16798,72.0534901 451.16798,73.4332558 C451.16798,73.6851871 451.207934,73.9326462 451.286479,74.1715869 L451.312812,74.2516598 L468.384336,74.2516598 L468.410442,74.1715869 C468.488534,73.9375443 468.528487,73.6883815 468.528487,73.4332558 C468.528487,72.0534901 467.332377,70.929915 465.861813,70.929915 L453.835335,70.929915 Z M462.049657,38.8554217 C461.936308,38.8554217 461.830846,38.8100729 461.751749,38.7272823 L458.662708,35.5421687 L461.750848,32.3561249 C461.83017,32.2735668 461.936308,32.2289157 462.049657,32.2289157 C462.163006,32.2289157 462.27027,32.2733342 462.350268,32.3561249 C462.515897,32.5270549 462.515897,32.8049617 462.350268,32.9756592 L460.284522,35.1047272 L486.09136,35.1047272 C486.324368,35.1047272 486.51456,35.2996107 486.51456,35.5412384 C486.51456,35.7826336 486.324368,35.9796102 486.09136,35.9796102 L460.283846,35.9796102 L462.350494,38.1086781 C462.515221,38.2793757 462.515221,38.5563522 462.350494,38.7272823 C462.269369,38.8089101 462.163006,38.8554217 462.049657,38.8554217 Z M450.184444,48.4939759 C450.071504,48.4939759 449.965525,48.4483961 449.885817,48.3665386 L446.810856,45.1808392 L449.885817,41.9958374 C449.965525,41.9132822 450.071504,41.8674699 450.184444,41.8674699 C450.297608,41.8674699 450.40426,41.9130496 450.483969,41.9967676 C450.648102,42.1658312 450.648102,42.4444259 450.483969,42.6144198 L448.425912,44.7431805 L486.092889,44.7431805 C486.325055,44.7431805 486.51456,44.9392199 486.51456,45.1808392 C486.51456,45.4212956 486.325055,45.6173351 486.092889,45.6173351 L448.42681,45.6173351 L450.483969,47.7479562 C450.648102,47.9188803 450.648102,48.1958471 450.483969,48.3665386 C450.40426,48.4483961 450.297608,48.4939759 450.184444,48.4939759 Z M440.677909,58.1325301 C440.567562,58.1325301 440.462342,58.0871861 440.382313,58.003474 L437.329375,54.8196259 L437.659524,54.4752439 L437.660416,54.4215286 L440.382313,51.63415 C440.461451,51.5525308 440.56667,51.5060241 440.678801,51.5060241 C440.790932,51.5060241 440.896151,51.5525308 440.975289,51.63415 C441.137355,51.8050621 441.137355,52.0829396 440.975289,52.252689 L438.934647,54.3815329 L486.095909,54.3815329 C486.326412,54.3815329 486.51456,54.5784887 486.51456,54.8189283 C486.51456,55.0593679 486.326412,55.2565563 486.095909,55.2565563 L438.933087,55.2565563 L440.975512,57.3860977 C441.138246,57.5558471 441.138246,57.8346548 440.975512,58.0046367 C440.895929,58.0869536 440.79004,58.1325301 440.677909,58.1325301 Z M434.407547,108.94805 C424.809182,108.94805 417,101.138648 417,91.5396226 C417,81.9419182 424.809182,74.132956 434.407547,74.132956 C444.005912,74.132956 451.815094,81.9421384 451.815094,91.5396226 C451.815094,101.138648 444.005692,108.94805 434.407547,108.94805 Z M434.407547,75.0015723 C425.289057,75.0015723 417.870377,82.4202516 417.870377,91.5396226 C417.870377,100.658774 425.289057,108.078553 434.407547,108.078553 C443.526698,108.078553 450.945597,100.658774 450.945597,91.5396226 C450.945377,82.4202516 443.526478,75.0015723 434.407547,75.0015723 Z M434.579273,104.071317 L434.386051,103.97542 C423.420107,98.5153234 424.790767,83.7203301 424.805562,83.5710341 L424.843544,83.1756554 L444.312131,83.1756554 L444.353646,83.5710341 C444.409294,84.1842381 445.57525,98.5969801 434.772274,103.97542 L434.579273,104.071317 Z M425.645139,84.0545219 C425.505798,86.6468441 425.412168,98.3624674 434.579052,103.089434 C443.751015,98.3597974 443.654073,86.6459541 443.512745,84.0545219 L425.645139,84.0545219 Z" id="ILU3"></path>
            </g>
        </g>
    </g>
</svg>